# Blender v3.2.2 OBJ File: ''
# www.blender.org
mtllib Pile.mtl
o Cube
v 0.708983 0.300697 -0.708983
v 2.574318 -0.300697 -2.574318
v 0.708983 0.300697 0.708983
v 2.574318 -0.300697 2.574318
v -0.708983 0.300697 -0.708983
v -2.574318 -0.300697 -2.574318
v -0.708983 0.300697 0.708983
v -2.574318 -0.300697 2.574318
v -3.588424 -0.300697 0.000000
v 0.000000 -0.300697 -3.588424
v 1.544090 0.000000 -1.544090
v -1.544090 0.000000 1.544090
v 1.544090 0.000000 1.544090
v -1.544090 0.000000 -1.544090
v 0.000000 0.300697 1.000000
v 1.000000 0.300697 0.000000
v 0.000000 -0.300697 3.588424
v -1.000000 0.300697 0.000000
v 0.000000 0.300697 -1.000000
v 3.588424 -0.300697 0.000000
v 0.000000 0.000000 -1.766924
v 1.766924 0.000000 0.000000
v 0.000000 -0.300697 0.000000
v -1.766924 0.000000 0.000000
v 0.000000 0.000000 1.766924
v 0.000000 0.497144 0.000000
vt 0.750000 0.625000
vt 0.875000 0.625000
vt 0.875000 0.750000
vt 0.750000 0.750000
vt 0.500000 0.875000
vt 0.625000 0.875000
vt 0.625000 1.000000
vt 0.500000 1.000000
vt 0.500000 0.125000
vt 0.625000 0.125000
vt 0.625000 0.250000
vt 0.500000 0.250000
vt 0.250000 0.625000
vt 0.375000 0.625000
vt 0.375000 0.750000
vt 0.250000 0.750000
vt 0.500000 0.625000
vt 0.625000 0.625000
vt 0.625000 0.750000
vt 0.500000 0.750000
vt 0.500000 0.375000
vt 0.625000 0.375000
vt 0.625000 0.500000
vt 0.500000 0.500000
vt 0.375000 0.375000
vt 0.375000 0.500000
vt 0.375000 0.250000
vt 0.125000 0.625000
vt 0.125000 0.750000
vt 0.125000 0.500000
vt 0.250000 0.500000
vt 0.375000 0.125000
vt 0.375000 0.000000
vt 0.500000 0.000000
vt 0.625000 0.000000
vt 0.375000 0.875000
vt 0.375000 1.000000
vt 0.750000 0.500000
vt 0.875000 0.500000
vn -0.1360 0.9813 0.1360
vn -0.0724 0.9456 0.3172
vn -0.3172 0.9456 -0.0724
vn 0.0000 -1.0000 0.0000
vn 0.3172 0.9456 0.0724
vn 0.0724 0.9456 -0.3172
vn 0.0560 0.9808 -0.1866
vn -0.0560 0.9808 -0.1866
vn -0.0724 0.9456 -0.3172
vn 0.1866 0.9808 0.0560
vn 0.1866 0.9808 -0.0560
vn 0.3172 0.9456 -0.0724
vn -0.1866 0.9808 -0.0560
vn -0.1866 0.9808 0.0560
vn -0.3172 0.9456 0.0724
vn -0.0560 0.9808 0.1866
vn 0.0560 0.9808 0.1866
vn 0.0724 0.9456 0.3172
vn 0.1360 0.9813 0.1360
vn 0.1360 0.9813 -0.1360
vn -0.1360 0.9813 -0.1360
usemtl Material
s off
f 26/1/1 18/2/1 7/3/1 15/4/1
f 25/5/2 15/6/2 7/7/2 12/8/2
f 24/9/3 18/10/3 5/11/3 14/12/3
f 23/13/4 20/14/4 4/15/4 17/16/4
f 22/17/5 16/18/5 3/19/5 13/20/5
f 21/21/6 19/22/6 1/23/6 11/24/6
f 10/25/7 21/21/7 11/24/7 2/26/7
f 6/27/8 14/12/8 21/21/8 10/25/8
f 14/12/9 5/11/9 19/22/9 21/21/9
f 20/14/10 22/17/10 13/20/10 4/15/10
f 2/26/11 11/24/11 22/17/11 20/14/11
f 11/24/12 1/23/12 16/18/12 22/17/12
f 9/28/4 23/13/4 17/16/4 8/29/4
f 6/30/4 10/31/4 23/13/4 9/28/4
f 10/31/4 2/26/4 20/14/4 23/13/4
f 9/32/13 24/9/13 14/12/13 6/27/13
f 8/33/14 12/34/14 24/9/14 9/32/14
f 12/34/15 7/35/15 18/10/15 24/9/15
f 17/36/16 25/5/16 12/8/16 8/37/16
f 4/15/17 13/20/17 25/5/17 17/36/17
f 13/20/18 3/19/18 15/6/18 25/5/18
f 16/18/19 26/1/19 15/4/19 3/19/19
f 1/23/20 19/38/20 26/1/20 16/18/20
f 19/38/21 5/39/21 18/2/21 26/1/21
